<svg xmlns="http://www.w3.org/2000/svg" width="120" height="120" viewBox="0 0 120 120">
  <g id="已完成" transform="translate(-801 -557)">
    <g id="组_855" data-name="组 855" transform="translate(-23.053 -15.053)">
      <g id="椭圆_130" data-name="椭圆 130" transform="translate(824.053 572.053)" fill="#fff" stroke="#d7dbe4" stroke-linecap="round" stroke-linejoin="round" stroke-width="2">
        <circle cx="60" cy="60" r="60" stroke="none"/>
        <circle cx="60" cy="60" r="59" fill="none"/>
      </g>
      <g id="椭圆_128" data-name="椭圆 128" transform="translate(845.053 593.053)" fill="#fff" stroke="#d8e0ff" stroke-width="1">
        <circle cx="39" cy="39" r="39" stroke="none"/>
        <circle cx="39" cy="39" r="38.5" fill="none"/>
      </g>
      <path id="减去_11" data-name="减去 11" d="M53,106A53.014,53.014,0,0,1,32.37,4.165a53.014,53.014,0,0,1,41.26,97.67A52.668,52.668,0,0,1,53,106Zm0-95.106A42.105,42.105,0,1,0,95.1,53,42.152,42.152,0,0,0,53,10.895Z" transform="translate(831.053 685.053) rotate(-90)" fill="#51e09b"/>
    </g>
    <text id="已完成-2" data-name="已完成" transform="translate(834 624)" fill="#35da1f" font-size="18" font-family="SourceHanSansCN-Normal, Source Han Sans CN"><tspan x="0" y="0">已完成</tspan></text>
  </g>
</svg>
