<svg xmlns="http://www.w3.org/2000/svg" width="12" height="12" viewBox="0 0 12 12">
  <g id="组_645" data-name="组 645" transform="translate(-375 -16)">
    <rect id="矩形_248" data-name="矩形 248" width="12" height="12" transform="translate(375 16)" fill="#0f5eff" opacity="0"/>
    <g id="路径_354" data-name="路径 354" transform="translate(-142.26 -369.287)" fill="none" stroke-linecap="round" stroke-linejoin="round">
      <path d="M528.532,389.875l-5.039-4.41a.721.721,0,0,0-.948,0l-5.039,4.41a.72.72,0,0,0-.246.542v6.151a.72.72,0,0,0,.72.72h3.091a.719.719,0,0,0,.72-.72v-2.917h2.456v2.917a.72.72,0,0,0,.72.72h3.091a.719.719,0,0,0,.72-.72v-6.151A.72.72,0,0,0,528.532,389.875Z" stroke="none"/>
      <path d="M 523.0189819335938 386.3788757324219 L 518.260009765625 390.5436401367188 L 518.260009765625 396.2872619628906 L 520.7905883789063 396.2872619628906 L 520.7905883789063 393.6506958007813 C 520.7905883789063 393.0984191894531 521.23828125 392.6506958007813 521.7905883789063 392.6506958007813 L 524.24658203125 392.6506958007813 C 524.7988891601563 392.6506958007813 525.24658203125 393.0984191894531 525.24658203125 393.6506958007813 L 525.24658203125 396.2872619628906 L 527.7771606445313 396.2872619628906 L 527.7771606445313 390.5430297851563 L 523.0189819335938 386.3788757324219 M 523.0189208984375 385.2872619628906 C 523.1881103515625 385.2872619628906 523.3572998046875 385.3464660644531 523.4929809570313 385.4648742675781 L 528.53173828125 389.87451171875 C 528.6879272460938 390.0112915039063 528.7771606445313 390.20849609375 528.7771606445313 390.4165344238281 L 528.7771606445313 396.5674133300781 C 528.7771606445313 396.9654846191406 528.4553833007813 397.2872619628906 528.057373046875 397.2872619628906 L 524.9664306640625 397.2872619628906 C 524.569091796875 397.2872619628906 524.24658203125 396.9654846191406 524.24658203125 396.5674133300781 L 524.24658203125 393.6506958007813 L 521.7905883789063 393.6506958007813 L 521.7905883789063 396.5674133300781 C 521.7905883789063 396.9654846191406 521.4688110351563 397.2872619628906 521.0707397460938 397.2872619628906 L 517.9798583984375 397.2872619628906 C 517.58251953125 397.2872619628906 517.260009765625 396.9654846191406 517.260009765625 396.5674133300781 L 517.260009765625 390.4165344238281 C 517.260009765625 390.20849609375 517.3499755859375 390.0112915039063 517.5061645507813 389.87451171875 L 522.544921875 385.4648742675781 C 522.6806640625 385.3464660644531 522.8497924804688 385.2872619628906 523.0189208984375 385.2872619628906 Z" stroke="none" fill="#0f5eff"/>
    </g>
  </g>
</svg>
