<?xml version="1.0" encoding="utf-8"?>
<!-- Generator: Adobe Illustrator 19.0.0, SVG Export Plug-In . SVG Version: 6.00 Build 0)  -->
<svg version="1.1" id="图层_1" xmlns="http://www.w3.org/2000/svg" xmlns:xlink="http://www.w3.org/1999/xlink" x="0px" y="0px"
	 viewBox="0 0 500 500" style="enable-background:new 0 0 500 500;" xml:space="preserve">
<style type="text/css">
	.st0{fill:#333333;}
</style>
<g>
	<path class="st0" d="M372.9,341L500,250.2l-127.1-90.8V341z M479.9,417H19.6c-11,0-20.1,9-20.1,20.1c0,11,9,20.1,20.1,20.1h460.3
		c11,0,20.1-9,20.1-20.1C500,426,491,417,479.9,417L479.9,417z M19.4,83.3h460.6c11,0,20.1-9,20.1-20.1c0-11-9-20.1-20.1-20.1H19.6
		c-11,0-20.1,9-20.1,20.1C-0.4,74.2,8.3,83.3,19.4,83.3L19.4,83.3z M19.4,207.9h299.4c11,0,20.1-9,20.1-20.1c0-11-9-20.1-20.1-20.1
		H19.6c-11,0-20.1,9-20.1,20.1C-0.4,198.9,8.3,207.9,19.4,207.9L19.4,207.9z M19.4,332.5h299.4c11,0,20.1-9,20.1-20.1
		c0-11-9-20.1-20.1-20.1H19.6c-11,0-20.1,9-20.1,20.1C-0.4,323.5,8.3,332.5,19.4,332.5L19.4,332.5z M19.4,332.5"/>
</g>
</svg>
