<?xml version="1.0" encoding="utf-8"?>
<!-- Generator: Adobe Illustrator 19.0.0, SVG Export Plug-In . SVG Version: 6.00 Build 0)  -->
<svg version="1.1" id="图层_1" xmlns="http://www.w3.org/2000/svg" xmlns:xlink="http://www.w3.org/1999/xlink" x="0px" y="0px"
	 viewBox="0 0 500 500" style="enable-background:new 0 0 500 500;" xml:space="preserve">
<style type="text/css">
	.st0{fill:#666666;}
</style>
<g>
	<g>
		<path class="st0" d="M250.9,277.6c-7.1,0-13.3-1.2-18.4-3.6L13.8,172.4c-9.4-4.4-15-12.7-15.1-22.2c-0.1-6.9,2.9-20.2,23.7-30.7
			l188.5-94.9c18-9.1,41.7-11.8,55.3-5.5l218.6,101.7c9.3,4.3,14.9,12.6,15.1,22.1c0.1,6.9-2.8,20.2-23.8,30.8l-188.5,95
			C276.3,274.3,263.7,277.4,250.9,277.6L250.9,277.6z M248.2,239.8c0.2,0,1.1,0.2,2.7,0.2c6.1,0,13.9-2,19.9-5l177.9-89.6
			L250.5,53.3c0.1,0-0.9-0.1-2.7-0.1c-6.1,0-13.9,2-20,5L50,147.8L248.2,239.8C248.2,239.9,248.2,239.8,248.2,239.8L248.2,239.8z
			 M287.7,380.8l188.5-95c20.9-10.6,23.9-23.8,23.8-30.8c-0.2-9.5-5.8-17.8-15.1-22.1c-6.3-2.9-13.6-2.1-19.1,2
			c-5.5,4.1-8.4,10.9-7.4,17.7l-187.5,94.4c-9.3,4.7-20.1,5.6-22.5,4.9L46.8,258.5c4.5-7.2,3.6-16.4-2.1-22.7
			c-5.7-6.2-14.9-7.9-22.4-4.1C1.5,242.4-1.4,255.6-1.3,262.5c0.2,9.5,5.8,17.7,15.1,22.1l218.6,101.7c5.5,2.5,11.9,3.6,18.5,3.6
			C263.8,389.7,276.3,386.6,287.7,380.8L287.7,380.8z M287.7,475L476.2,380c20.9-10.6,23.9-23.8,23.8-30.8
			c-0.2-9.5-5.8-17.8-15.1-22.1c-6.3-2.8-13.6-2-19.1,2.1c-5.5,4.1-8.4,10.9-7.4,17.7l-187.5,94.4c-9.4,4.7-20.2,5.6-22.6,4.9
			L46.8,352.7c3.5-5.6,3.8-12.6,0.9-18.4c-2.2-4.5-6.2-7.9-10.9-9.4c-4.7-1.6-9.9-1.2-14.4,1.1C1.6,336.5-1.4,349.7-1.3,356.6
			c0.1,9.5,5.7,17.8,15.1,22.2l218.7,101.7c5.4,2.5,11.8,3.6,18.5,3.6C263.7,483.8,276.3,480.7,287.7,475L287.7,475z M287.7,475"/>
	</g>
</g>
</svg>
