<?xml version="1.0" encoding="utf-8"?>
<!-- Generator: Adobe Illustrator 19.0.0, SVG Export Plug-In . SVG Version: 6.00 Build 0)  -->
<svg version="1.1" id="图层_1" xmlns="http://www.w3.org/2000/svg" xmlns:xlink="http://www.w3.org/1999/xlink" x="0px" y="0px"
	 viewBox="0 0 500 500" style="enable-background:new 0 0 500 500;" xml:space="preserve">
<style type="text/css">
	.st0{clip-path:url(#SVGID_2_);fill:#C1D1EB;}
	.st1{fill:#C1D1EB}
</style>
<g>
	<g>
		<defs>
			<rect id="SVGID_1_" x="-0.2" width="500.2" height="500.7"/>
		</defs>
		<clipPath id="SVGID_2_">
			<use xlink:href="#SVGID_1_"  style="overflow:visible;"/>
		</clipPath>
		<path class="st0" d="M249.7,500.1c-138,0-249.9-111.9-249.9-249.9c0-138,111.9-249.9,249.9-249.9c138,0,249.9,111.9,249.9,249.9
			C499.5,388.2,387.7,500.1,249.7,500.1L249.7,500.1z M249.7,466.8c119.6,0,216.6-96.9,216.6-216.6c0-119.7-97-216.6-216.6-216.6
			c-119.6,0-216.6,97-216.6,216.6C33.1,369.8,130.1,466.8,249.7,466.8L249.7,466.8z M249.7,466.8"/>
	</g>
	<path class="st1" d="M256.1,128.1c22.8,0,41.2,6,55.4,18.9c14.2,12.4,21.3,29.5,21.3,50.8c0,17.4-4.6,31.9-13.5,43.3
		c-3.2,3.9-13.2,13.2-29.8,27.7c-6.8,5.7-11.7,12.1-14.9,18.5c-3.9,7.1-5.7,14.9-5.7,23.5v6h-38.1v-6c0-13.2,2.1-24.5,7.1-33.7
		c4.6-9.9,18.1-24.5,40.2-44.1l6-6.7c6.4-8.2,9.9-16.7,9.9-25.9c0-12.5-3.6-22-10.3-29.1c-7.1-7.1-17.4-10.7-30.2-10.7
		c-16,0-27.7,5-34.8,15.3c-6.4,8.5-9.6,20.7-9.6,36.3h-37.3c0-25.9,7.5-46.2,22.4-61.1C209.2,135.5,229.8,128.1,256.1,128.1
		L256.1,128.1z M249.8,336c7.5,0,13.8,2.1,18.9,7.1c5,4.6,7.5,10.7,7.5,18.1s-2.8,13.5-7.8,18.4c-5,4.6-11.6,7.2-18.5,7.1
		c-7.1,0-13.5-2.5-18.4-7.5c-4.9-4.8-7.6-11.3-7.5-18.1c0-7.5,2.5-13.5,7.5-18.1C236.2,338.1,242.6,335.9,249.8,336L249.8,336z
		 M249.8,336"/>
</g>
</svg>
