<svg xmlns="http://www.w3.org/2000/svg" width="11.517" height="12" viewBox="0 0 11.517 12">
  <g id="组_662" data-name="组 662" transform="translate(-492 -385.288)">
    <g id="路径_257" data-name="路径 257" fill="none" stroke-linecap="round" stroke-linejoin="round">
      <path d="M502.8,397.288H492.72a.72.72,0,0,1-.72-.72v-6.151a.72.72,0,0,1,.245-.542l5.039-4.409a.721.721,0,0,1,.949,0l5.039,4.409a.72.72,0,0,1,.245.542v6.151A.72.72,0,0,1,502.8,397.288Z" stroke="none"/>
      <path d="M 502.517333984375 396.2875061035156 L 502.517333984375 390.5431823730469 L 497.7586669921875 386.3793640136719 L 493 390.5432434082031 L 493 396.2875061035156 L 502.517333984375 396.2875061035156 M 502.7975463867188 397.2875061035156 L 492.7198486328125 397.2875061035156 C 492.322509765625 397.2875061035156 492 396.9656982421875 492 396.5676574707031 L 492 390.4166870117188 C 492 390.2086486816406 492.0892944335938 390.0114135742188 492.2454833984375 389.8746643066406 L 497.2843017578125 385.4656677246094 C 497.4199829101563 385.3468933105469 497.5893249511719 385.2875061035156 497.7586669921875 385.2875061035156 C 497.9280090332031 385.2875061035156 498.0973510742188 385.3468933105469 498.2330322265625 385.4656677246094 L 503.2719116210938 389.8746643066406 C 503.4281005859375 390.0114135742188 503.517333984375 390.2086486816406 503.517333984375 390.4166870117188 L 503.517333984375 396.5676574707031 C 503.517333984375 396.9656982421875 503.1948852539063 397.2875061035156 502.7975463867188 397.2875061035156 Z" stroke="none" fill="#0f5eff"/>
    </g>
    <line id="直线_54" data-name="直线 54" x2="2.517" transform="translate(496.5 394.285)" fill="none" stroke="#0f5eff" stroke-linecap="round" stroke-linejoin="round" stroke-width="1"/>
  </g>
</svg>
