<?xml version="1.0" encoding="utf-8"?>
<!-- Generator: Adobe Illustrator 19.0.0, SVG Export Plug-In . SVG Version: 6.00 Build 0)  -->
<svg version="1.1" id="图层_1" xmlns="http://www.w3.org/2000/svg" xmlns:xlink="http://www.w3.org/1999/xlink" x="0px" y="0px"
	 viewBox="0 0 500 500" style="enable-background:new 0 0 500 500;" xml:space="preserve">
<style type="text/css">
	.st0{fill:#C1D1EB;}
</style>
<g id="XMLID_2_">
	<g id="XMLID_9_">
		<path id="XMLID_10_" class="st0" d="M281.8,32.8c2.6,1.3,4.8,3.2,6.3,5.7c1.5,2.5,2.3,5.3,2.3,8.3V464c0,3-0.7,5.7-2.3,8.3
			c-1.5,2.5-3.7,4.5-6.3,5.7c-1,0.7-2.3,1.3-3.6,1.5c-2.7,0.7-5.5,0.7-8.3-0.2c-1.6-0.5-2.9-1.3-4.3-2.3L106.1,351.2H53.2
			c-13.7,0-25.3-4.3-35-12.7C8.6,330,3.8,319.8,3.8,307.8l-1-105.3c0-12,4.8-22.1,14.4-30.5c9.6-8.3,21.3-12.4,35-12.4h53
			L265.8,33.8c2.3-1.7,5.1-2.6,7.9-2.7C276.6,30.8,279.4,31.4,281.8,32.8L281.8,32.8z M258.3,434.1V76.6L119,188.4c-2.6,2-5.7,3-9,3
			H52.2c-5.3,0-9.6,1.1-12.7,3.6c-3.1,2.3-4.7,4.8-4.7,7.5l1,105.3c0,2.7,1.6,5.2,4.8,7.7c3.1,2.5,7.4,3.8,12.7,3.8h57.9
			c1.7,0,3.2,0.2,4.7,0.5c1.6,0.3,3,1,4.3,2L258.3,434.1L258.3,434.1z M418.6,258.4c0,20.3-6.5,38.4-19.4,54.4
			c-12.6,15.9-30.6,26.6-50.7,30.2c-0.5,0.2-1.1,0.3-1.8,0.2c-3.7,0-7.2-1.4-9.9-3.8c-2.9-2.3-4.8-5.6-5.5-9.2
			c-1-4.2-0.2-8.6,2.2-12c2.4-3.6,6.1-6.1,10.2-7c12.3-2.1,23.4-8.8,30.9-18.7c7.9-10.1,12-21.5,12-34.2c0-13.7-3.9-25.5-11.8-35.4
			c-7.5-9.8-18.5-16.2-30.7-18c-4.2-0.5-7.9-2.9-10.2-6.5c-2.4-3.4-3.4-7.7-2.7-11.9c0.6-4.2,2.8-7.9,6.3-10.4
			c3.4-2.6,7.9-3.6,12.2-2.5c20,3.3,36.5,13,49.4,28.9C412.1,218.4,418.6,237.1,418.6,258.4L418.6,258.4z M397.7,111.6
			c15.3,5.6,29.1,13.4,41.4,23.2c12.3,9.8,23,21.1,32,34c27.7,39.8,35.3,90.3,20.7,136.6c-4.7,15-11.7,29.3-20.7,42.2
			c-9,12.7-19.7,24.2-32,34c-12.4,9.9-26.4,17.8-41.4,23.2c-0.9,0.3-1.8,0.5-2.7,0.7c-4.1,0.7-8.4-0.1-11.7-2.5
			c-2.6-1.8-4.7-4.3-6-7.2c-1.7-4-1.6-8.6,0.2-12.4c1.8-3.9,5.1-6.9,9.2-8c23.6-9.1,44-25.2,58.2-46.2c14.8-21.4,22.3-45,22.3-70.6
			c0-25.9-7.4-49.6-22.3-71.1c-14.1-20.9-34.5-36.9-58.1-45.7c-4.1-1.5-7.4-4.5-9.3-8.5c-1.9-3.8-1.9-8.1-0.2-12
			c1.4-4.4,4.1-7.4,8.3-9.2C389.2,110.1,393.7,110,397.7,111.6L397.7,111.6z"/>
	</g>
</g>
</svg>
