<svg xmlns="http://www.w3.org/2000/svg" width="18.92" height="14" viewBox="0 0 18.92 14">
    <g id="插头" transform="translate(-644.08 -459)">
        <g id="矩形_258" data-name="矩形 258" transform="translate(651 459)" fill="#F5DBDF" stroke="#FA6A6A" stroke-width="2">
            <path d="M1,0H7a5,5,0,0,1,5,5V9a5,5,0,0,1-5,5H1a1,1,0,0,1-1-1V1A1,1,0,0,1,1,0Z" stroke="none"/>
            <path d="M1,1H7a4,4,0,0,1,4,4V9a4,4,0,0,1-4,4H1a0,0,0,0,1,0,0V1A0,0,0,0,1,1,1Z" fill="none"/>
        </g>
        <g id="组_845" data-name="组 845" transform="translate(0 0.5)">
            <line id="直线_236" data-name="直线 236" x2="6.42" transform="translate(645.08 468.5)" fill="none" stroke="#FA6A6A" stroke-linecap="round" stroke-width="2"/>
            <line id="直线_237" data-name="直线 237" x2="6.42" transform="translate(645.08 462.5)" fill="none" stroke="#FA6A6A" stroke-linecap="round" stroke-width="2"/>
        </g>
    </g>
</svg>
