<?xml version="1.0" encoding="utf-8"?>
<!-- Generator: Adobe Illustrator 19.0.0, SVG Export Plug-In . SVG Version: 6.00 Build 0)  -->
<svg version="1.1" id="图层_1" xmlns="http://www.w3.org/2000/svg" xmlns:xlink="http://www.w3.org/1999/xlink" x="0px" y="0px"
	 viewBox="0 0 500 500" style="enable-background:new 0 0 500 500;" xml:space="preserve">
<style type="text/css">
	.st0{fill:#333333;}
</style>
<g>
	<path class="st0" d="M126.7,159.5L-0.4,250.2L126.7,341V159.5z M19.6,417c-11,0-20.1,9-20.1,20.1c0,11,9,20.1,20.1,20.1h460.3
		c11,0,20.1-9,20.1-20.1c0-11-9-20.1-20.1-20.1H19.6L19.6,417z M480.2,83.3c11,0,19.8-9,19.8-20.1c0-11-9-20.1-20.1-20.1H19.6
		c-11,0-20.1,9-20.1,20.1c0,11,9,20.1,20.1,20.1H480.2L480.2,83.3z M480.2,207.9c11,0,19.8-9,19.8-20.1c0-11-9-20.1-20.1-20.1H180.8
		c-11,0-20.1,9-20.1,20.1c0,11,9,20.1,20.1,20.1H480.2L480.2,207.9z M480.2,332.5c11,0,19.8-9,19.8-20.1c0-11-9-20.1-20.1-20.1
		H180.8c-11,0-20.1,9-20.1,20.1c0,11,9,20.1,20.1,20.1H480.2L480.2,332.5z M480.2,332.5"/>
</g>
</svg>
