<?xml version="1.0" encoding="utf-8"?>
<!-- Generator: Adobe Illustrator 19.0.0, SVG Export Plug-In . SVG Version: 6.00 Build 0)  -->
<svg version="1.1" id="图层_1" xmlns="http://www.w3.org/2000/svg" xmlns:xlink="http://www.w3.org/1999/xlink" x="0px" y="0px"
	 viewBox="0 0 500 500" style="enable-background:new 0 0 500 500;" xml:space="preserve">
<style type="text/css">
	.st0{fill:#666666;}
</style>
<g>
	<path class="st0" d="M493.7,203.7c-3.1-15.6-12.5-25-25-25c-34.4,0-62.5-28.1-62.5-62.5c0-9.4,6.3-21.9,6.3-21.9
		c6.3-12.5,0-28.1-9.4-37.5l-62.5-34.4c-6.3-3.1-12.5-6.3-15.6-6.3c-9.4,0-18.8,3.1-25,9.4c-6.3,9.4-31.3,28.1-50,28.1
		c-18.8,0-40.6-18.8-50-28.1c-3.1-6.3-12.5-9.4-21.9-9.4c-6.3,0-9.4,0-12.5,3.1L99.8,53.6c-12.5,9.4-18.8,25-12.5,37.5
		c0,0,6.3,12.5,6.3,25c0,34.4-28.1,62.5-62.5,62.5h-3.1c-9.4-3.1-18.8,9.4-21.9,25c0,0-6.3,25-6.3,46.9c0,21.9,6.3,46.9,6.3,50
		c3.1,15.6,12.5,25,25,25c34.4,0,62.5,28.1,62.5,62.5c0,12.5-6.3,21.9-6.3,21.9c-6.3,12.5,0,28.1,9.4,37.5l59.4,34.4
		c9.4,0,12.5,3.1,18.8,3.1c9.4,0,18.8-3.1,25-9.4c9.4-9.4,31.3-28.1,50-28.1c18.8,0,43.8,21.9,50,28.1c6.3,6.3,15.6,9.4,25,9.4
		c3.1,0,9.4,0,12.5-3.1l62.5-34.4c12.5-9.4,15.6-25,9.4-37.5c0,0-6.3-12.5-6.3-25c0-34.4,28.1-62.5,62.5-62.5h3.1
		c12.5,0,21.9-9.4,25-25c0,0,6.3-28.1,6.3-50C500,228.7,493.7,203.7,493.7,203.7L493.7,203.7z M465.6,250.6
		c0,15.6-3.1,34.4-3.1,40.6c-25,3.1-46.9,12.5-62.5,28.1c-15.6,18.8-25,40.6-25,65.6c0,15.6,6.3,28.1,6.3,34.4l-56.3,31.3
		c-3.1-3.1-9.4-9.4-21.9-18.8c-18.8-12.5-37.5-21.9-53.1-21.9c-15.6,0-34.4,6.3-53.1,21.9c-12.5,9.4-18.8,15.6-21.9,18.8l-53.1-31.3
		c3.1-6.3,6.3-18.8,6.3-34.4c0-25-9.4-46.9-25-65.6c-18.8-15.6-40.6-28.1-65.6-28.1c0-6.3-3.1-25-3.1-40.6c0-15.6,3.1-34.4,3.1-40.6
		c25-3.1,46.9-12.5,62.5-28.1c18.8-18.8,28.1-40.6,28.1-65.6c0-15.6-6.3-28.1-6.3-34.4L178,50.5c0,0,9.4,9.4,21.9,18.8
		c18.8,12.5,34.4,18.8,50,18.8c15.6,0,34.4-6.3,53.1-18.8c12.5-9.4,18.8-15.6,21.9-18.8l56.3,31.3c-3.1,6.3-6.3,18.8-6.3,34.4
		c0,25,9.4,46.9,25,65.6c15.6,18.8,37.5,28.1,62.5,28.1C462.5,219.3,465.6,235,465.6,250.6L465.6,250.6z M465.6,250.6"/>
	<path class="st0" d="M256.2,156.8c-50,0-90.7,40.6-90.7,93.8c0,53.1,40.6,93.8,90.7,93.8c50,0,90.7-40.6,90.7-93.8
		C346.8,197.5,306.2,156.8,256.2,156.8L256.2,156.8z M256.2,306.9c-31.3,0-56.3-25-56.3-56.3c0-31.3,25-56.3,56.3-56.3
		s56.3,25,56.3,56.3C312.4,281.9,287.4,306.9,256.2,306.9L256.2,306.9z M256.2,306.9"/>
</g>
</svg>
