<?xml version="1.0" encoding="utf-8"?>
<!-- Generator: Adobe Illustrator 19.0.0, SVG Export Plug-In . SVG Version: 6.00 Build 0)  -->
<svg version="1.1" id="图层_1" xmlns="http://www.w3.org/2000/svg" xmlns:xlink="http://www.w3.org/1999/xlink" x="0px" y="0px"
	 viewBox="0 0 500 500" style="enable-background:new 0 0 500 500;" xml:space="preserve">
<style type="text/css">
	.st0{fill:#666666;}
</style>
<g>
	<g>
		<path class="st0" d="M60.5,320.5c-12.2,0-22,9.9-22,22v132.1c0,12.2,9.9,22,22,22c12.2,0,22-9.9,22-22V342.5
			C82.5,330.3,72.7,320.5,60.5,320.5L60.5,320.5z M186.8,179.5c-12.2,0-22,9.9-22,22v273c0,12.2,9.9,22,22,22c12.2,0,22-9.9,22-22
			v-273C208.8,189.4,198.9,179.5,186.8,179.5L186.8,179.5z M439.3,179.5c-12.2,0-22,9.9-22,22v273c0,12.2,9.9,22,22,22
			c12.2,0,22-9.9,22-22v-273C461.3,189.4,451.4,179.5,439.3,179.5L439.3,179.5z M313,285.2c-12.2,0-22,9.9-22,22v167.3
			c0,12.2,9.9,22,22,22c12.2,0,22-9.9,22-22V307.3C335,295.1,325.2,285.2,313,285.2L313,285.2z M474.7,3.4h-79.5
			c-12.2,0-22,9.9-22,22s9.9,22,22,22h26.1L315.5,152.1L208.2,44.7c-8.2-8.2-21.4-8.5-30-0.7c-0.3,0.3-0.6,0.6-0.9,0.8L9.7,212.4
			c-8.6,8.6-8.6,22.5,0,31c8.6,8.6,22.5,8.6,31,0l152-152l105.7,105.7c0.4,0.5,0.8,0.9,1.2,1.3c3.1,3.2,7.1,5.3,11.5,6.1l0.3,0.1
			l0.6,0.1c6.7,1,13.4-1.1,18.3-5.8l0.3-0.3L452.7,78.2v26.5c0,12.2,9.9,22,22,22c12.2,0,22-9.9,22-22V25.4
			C496.7,13.2,486.8,3.4,474.7,3.4L474.7,3.4z M474.7,3.4"/>
	</g>
</g>
</svg>
