<?xml version="1.0" encoding="utf-8"?>
<!-- Generator: Adobe Illustrator 19.0.0, SVG Export Plug-In . SVG Version: 6.00 Build 0)  -->
<svg version="1.1" id="图层_1" xmlns="http://www.w3.org/2000/svg" xmlns:xlink="http://www.w3.org/1999/xlink" x="0px" y="0px"
	 viewBox="0 0 500 500" style="enable-background:new 0 0 500 500;" xml:space="preserve">
<style type="text/css">
	.st0{fill:#CFCFCF;}
	.st1{fill:#EDEDEC;}
</style>
<g>
	<path class="st0" d="M249.8,16.8c-51.3,0-92.6,41.6-92.6,92.6c0,51,41.6,92.6,92.6,92.6c51.3,0,92.6-41.6,92.6-92.6
		C342.4,58.5,301.1,16.8,249.8,16.8z M249.8,161c-28.5,0-51.5-23-51.5-51.5c0-28.5,23-51.5,51.5-51.5c28.5,0,51.5,23,51.5,51.5
		C301.3,138,278.3,161,249.8,161z"/>
	<path class="st0" d="M404.3,278.6c-51.3,0-92.6,41.6-92.6,92.6c0,51,41.6,92.6,92.6,92.6c51.3,0,92.6-41.6,92.6-92.6
		C497,320.3,455.4,278.6,404.3,278.6z M404.3,422.8c-28.5,0-51.5-23-51.5-51.5c0-28.5,23-51.5,51.5-51.5c28.5,0,51.5,23,51.5,51.5
		C455.9,399.8,432.8,422.8,404.3,422.8z"/>
	<path class="st0" d="M95.2,278.6c-51.3,0-92.6,41.6-92.6,92.6c0,51,41.6,92.6,92.6,92.6c51.3,0,92.6-41.6,92.6-92.6
		C187.9,320.3,146.5,278.6,95.2,278.6z M95.2,422.8c-28.5,0-51.5-23-51.5-51.5c0-28.5,23-51.5,51.5-51.5c28.5,0,51.5,23,51.5,51.5
		C146.7,399.8,123.7,422.8,95.2,422.8z"/>
	<path class="st1" d="M158.6,157.3c-5.7-10.9-9.7-23-11.1-35.9c-52.3,32.7-88.2,89.2-92.4,154.1c11.6-5,24-7.9,37.2-8.2
		C98.2,221.9,123,182.5,158.6,157.3L158.6,157.3z"/>
	<path class="st1" d="M410.5,268.5c13.1,0.7,25.5,4,36.9,9.4c-3.5-67.1-40.9-125.3-95.1-158.3c-1.2,12.9-5,25-10.4,36.2
		C378.8,181.1,404.8,221.7,410.5,268.5L410.5,268.5z"/>
	<path class="st0" d="M410.5,268.5"/>
	<path class="st1" d="M321.4,432.2c-21.3,10.4-45.1,16.1-70.1,16.1c-26.3,0-51-6.4-72.8-17.6c-7.4,10.2-16.8,19.1-27.5,26
		c29.2,17.6,63.7,27.7,100.3,27.7c35.7,0,69.1-9.7,98.1-26.3C338.5,451.3,329,442.6,321.4,432.2L321.4,432.2z M321.4,432.2"/>
</g>
</svg>
