<?xml version="1.0" encoding="utf-8"?>
<!-- Generator: Adobe Illustrator 19.0.0, SVG Export Plug-In . SVG Version: 6.00 Build 0)  -->
<svg version="1.1" id="图层_1" xmlns="http://www.w3.org/2000/svg" xmlns:xlink="http://www.w3.org/1999/xlink" x="0px" y="0px"
	 viewBox="0 0 500 500" style="enable-background:new 0 0 500 500;" xml:space="preserve">
<style type="text/css">
	.st0{fill:#1C1C1C;}
	.st1{fill:#666666;}
</style>
<g>
	<g>
		<path class="st0" d="M493.5,384.5"/>
		<path class="st1" d="M385.7,486H98.9c-30.1,0-54.6-24.5-54.6-54.6V82.8C44.2,44.9,75.1,14,113,14h232.7c3.1,0,6.1,1.3,8.2,3.5
			l97.4,101.1c2.1,2.1,3.2,5,3.2,7.9v290.6C454.5,455.1,423.6,486,385.7,486L385.7,486z M113,36.9c-25.3,0-45.9,20.6-45.9,45.9
			v348.5c0,17.5,14.2,31.8,31.8,31.8h286.8c25.3,0,45.9-20.6,45.9-45.9v-286l-90.8-94.3H113z M113,36.9"/>
	</g>
	<path class="st1" d="M356.5,221.6H137.7c-6.3,0-11.4-5.1-11.4-11.4c0-6.3,5.1-11.4,11.4-11.4h218.8c6.3,0,11.4,5.1,11.4,11.4
		C367.9,216.5,362.8,221.6,356.5,221.6L356.5,221.6z M356.5,298H137.7c-6.3,0-11.4-5.1-11.4-11.4c0-6.3,5.1-11.4,11.4-11.4h218.8
		c6.3,0,11.4,5.1,11.4,11.4C367.9,292.9,362.8,298,356.5,298L356.5,298z M356.5,374.4H137.7c-6.3,0-11.4-5.1-11.4-11.4
		c0-6.3,5.1-11.4,11.4-11.4h218.8c6.3,0,11.4,5.1,11.4,11.4C367.9,369.2,362.8,374.4,356.5,374.4L356.5,374.4z M443,140.3h-97.4
		c-6.3,0-11.4-5.1-11.4-11.4V25.4c0-6.3,5.1-11.4,11.4-11.4c6.3,0,11.4,5.1,11.4,11.4v92h86c6.3,0,11.4,5.1,11.4,11.4
		C454.5,135.2,449.4,140.3,443,140.3L443,140.3z M443,140.3"/>
</g>
</svg>
