<svg xmlns="http://www.w3.org/2000/svg" width="11.505" height="14.224" viewBox="0 0 11.505 14.224">
  <g id="密码" transform="translate(-849 -394.776)">
    <g id="矩形_282" data-name="矩形 282" transform="translate(849 400.087)" fill="none" stroke="#a8aed3" stroke-width="1">
      <rect width="11.505" height="8.913" rx="2" stroke="none"/>
      <rect x="0.5" y="0.5" width="10.505" height="7.913" rx="1.5" fill="none"/>
    </g>
    <g id="矩形_283" data-name="矩形 283" transform="translate(851.655 394.776)" fill="none" stroke="#a8aed3" stroke-width="1">
      <path d="M3.1,0h0A3.1,3.1,0,0,1,6.2,3.1V6.2a0,0,0,0,1,0,0H0a0,0,0,0,1,0,0V3.1A3.1,3.1,0,0,1,3.1,0Z" stroke="none"/>
      <path d="M3.1.5h0A2.6,2.6,0,0,1,5.7,3.1V5.324a.371.371,0,0,1-.371.371H.871A.371.371,0,0,1,.5,5.324V3.1A2.6,2.6,0,0,1,3.1.5Z" fill="none"/>
    </g>
  </g>
</svg>
