<?xml version="1.0" encoding="utf-8"?>
<!-- Generator: Adobe Illustrator 19.0.0, SVG Export Plug-In . SVG Version: 6.00 Build 0)  -->
<svg version="1.1" id="图层_1" xmlns="http://www.w3.org/2000/svg" xmlns:xlink="http://www.w3.org/1999/xlink" x="0px" y="0px"
	 viewBox="0 0 500 500" style="enable-background:new 0 0 500 500;" xml:space="preserve">
<style type="text/css">
	.st0{clip-path:url(#SVGID_2_);fill:#666666;}
	.st1{fill:#666666;}
</style>
<g>
	<g>
		<defs>
			<rect id="SVGID_1_" x="5" y="5.1" width="489.9" height="490.4"/>
		</defs>
		<clipPath id="SVGID_2_">
			<use xlink:href="#SVGID_1_"  style="overflow:visible;"/>
		</clipPath>
		<path class="st0" d="M488.7,252l-76.2-76.2c-3.7-3.7-8.7-5.7-13.8-5.7c-5.2,0-10.2,2.1-13.8,5.7L176.2,384.5
			c-3.8,3.8-5.9,9.1-5.7,14.5l-0.9,77.1c0.2,5,2.2,9.7,5.7,13.2c3.5,3.5,8.2,5.6,13.2,5.7l77.1-0.9c5.4,0.2,10.7-1.9,14.5-5.7
			l153.2-153.2l20.8-20.8l34.6-34.6c3.7-3.7,5.7-8.7,5.7-13.8C494.4,260.7,492.4,255.7,488.7,252L488.7,252z M262.3,464.6l-63.7,1.4
			l1.4-63.7L350.2,252l62.3,62.3L262.3,464.6z M433.3,293.6L371,231.3l27.7-27.7l62.3,62.3L433.3,293.6z M433.3,293.6"/>
		<path class="st0" d="M140,465.6H53.8c-5.2,0-10.2-2.1-13.8-5.7c-3.7-3.7-5.7-8.7-5.7-13.8V54.4c0-10.8,8.8-19.6,19.6-19.6h342.7
			c5.2,0,10.2,2.1,13.8,5.7c3.7,3.7,5.7,8.7,5.7,13.8V136c0,5.2,2.8,10.1,7.3,12.7c4.5,2.6,10.1,2.6,14.7,0
			c4.5-2.6,7.3-7.5,7.3-12.7V54.4c0-27-21.9-49-49-49H53.8c-27,0-49,21.9-49,49V446c0,27,21.9,49,49,49H140
			c8.1,0,14.7-6.6,14.7-14.7C154.7,472.2,148.1,465.6,140,465.6L140,465.6z M430.8,371.9c-3.9,0-7.6,1.5-10.4,4.3
			c-2.8,2.8-4.3,6.5-4.3,10.4V446c0,5.2-2.1,10.2-5.7,13.8c-3.7,3.7-8.7,5.7-13.8,5.7h-57.7c-5.2,0-10.1,2.8-12.7,7.3
			c-2.6,4.5-2.6,10.1,0,14.7c2.6,4.5,7.5,7.3,12.7,7.3h57.7c27,0,49-21.9,49-49v-59.4c0-3.9-1.5-7.6-4.3-10.4
			C438.4,373.5,434.7,371.9,430.8,371.9L430.8,371.9z M430.8,371.9"/>
	</g>
	<path class="st1" d="M357.4,111.5c0-3.9-1.5-7.6-4.3-10.4c-2.8-2.8-6.5-4.3-10.4-4.3H78.3c-8.1,0-14.7,6.6-14.7,14.7
		c0,8.1,6.6,14.7,14.7,14.7h264.4c3.9,0,7.6-1.5,10.4-4.3C355.8,119.1,357.4,115.3,357.4,111.5L357.4,111.5z M78.3,191.5
		c-8.1,0-14.7,6.6-14.7,14.7c0,8.1,6.6,14.7,14.7,14.7h166.4c8.1,0,14.7-6.6,14.7-14.7c0-8.1-6.6-14.7-14.7-14.7H78.3z M146.9,286.2
		H78.3c-5.2,0-10.1,2.8-12.7,7.3c-2.6,4.5-2.6,10.1,0,14.7c2.6,4.5,7.5,7.3,12.7,7.3h68.5c8.1,0,14.7-6.6,14.7-14.7
		C161.5,292.8,155,286.2,146.9,286.2L146.9,286.2z M146.9,286.2"/>
</g>
</svg>
