<?xml version="1.0" encoding="utf-8"?>
<!-- Generator: Adobe Illustrator 19.0.0, SVG Export Plug-In . SVG Version: 6.00 Build 0)  -->
<svg version="1.1" id="图层_1" xmlns="http://www.w3.org/2000/svg" xmlns:xlink="http://www.w3.org/1999/xlink" x="0px" y="0px"
	 viewBox="0 0 500 500" style="enable-background:new 0 0 500 500;" xml:space="preserve">
<style type="text/css">
	.st0{fill:#666666;}
</style>
<g>
	<path class="st0" d="M439.6,7H59.2c-18,0-31.7,13.7-31.7,31.7v422.6c0,18,13.7,31.7,31.7,31.7h380.3c18,0,31.7-13.7,31.7-31.7V38.7
		C471.3,20.7,457.5,7,439.6,7L439.6,7z M450.1,461.3c0,6.3-4.2,10.6-10.6,10.6H59.2c-6.3,0-10.6-4.2-10.6-10.6V38.7
		c0-6.3,4.2-10.6,10.6-10.6h380.3c6.3,0,10.6,4.2,10.6,10.6V461.3z M450.1,461.3"/>
	<path class="st0" d="M101.5,132.7c0,7.9,4.2,15.3,11.1,19.2c6.9,4,15.3,4,22.2,0c6.9-4,11.1-11.3,11.1-19.2
		c0-12.3-9.9-22.2-22.2-22.2C111.4,110.5,101.5,120.5,101.5,132.7L101.5,132.7z M101.5,132.7"/>
	<path class="st0" d="M101.5,239.4c0,7.9,4.2,15.3,11.1,19.2c6.9,4,15.3,4,22.2,0c6.9-4,11.1-11.3,11.1-19.2
		c0-12.3-9.9-22.2-22.2-22.2C111.4,217.2,101.5,227.2,101.5,239.4L101.5,239.4z M101.5,239.4"/>
	<path class="st0" d="M101.5,346.1c0,7.9,4.2,15.3,11.1,19.2c6.9,4,15.3,4,22.2,0c6.9-4,11.1-11.3,11.1-19.2
		c0-12.3-9.9-22.2-22.2-22.2C111.4,324,101.5,333.9,101.5,346.1L101.5,346.1z M101.5,346.1"/>
	<path class="st0" d="M386.7,121.1H186c-6.3,0-10.6,5.3-10.6,10.6c0,5.3,5.3,10.6,10.6,10.6h200.7c6.3,0,10.6-5.3,10.6-10.6
		C397.3,126.4,392,121.1,386.7,121.1L386.7,121.1z M386.7,228.9H186c-6.3,0-10.6,5.3-10.6,10.6c0,5.3,5.3,10.6,10.6,10.6h200.7
		c6.3,0,10.6-5.3,10.6-10.6C397.3,234.2,392,228.9,386.7,228.9L386.7,228.9z M386.7,335.6H186c-6.3,0-10.6,5.3-10.6,10.6
		c0,5.3,5.3,10.6,10.6,10.6h200.7c6.3,0,10.6-5.3,10.6-10.6C397.3,340.9,392,335.6,386.7,335.6L386.7,335.6z M386.7,335.6"/>
</g>
</svg>
