<?xml version="1.0" encoding="utf-8"?>
<!-- Generator: Adobe Illustrator 19.0.0, SVG Export Plug-In . SVG Version: 6.00 Build 0)  -->
<svg version="1.1" id="图层_1" xmlns="http://www.w3.org/2000/svg" xmlns:xlink="http://www.w3.org/1999/xlink" x="0px" y="0px"
	 viewBox="0 0 500 500" style="enable-background:new 0 0 500 500;" xml:space="preserve">
<style type="text/css">
	.st0{clip-path:url(#SVGID_2_);fill:#666666;}
	.st1{fill:#666666;}
</style>
<g>
	<g>
		<defs>
			<rect id="SVGID_1_" x="46" y="4.9" width="406.9" height="491.9"/>
		</defs>
		<clipPath id="SVGID_2_">
			<use xlink:href="#SVGID_1_"  style="overflow:visible;"/>
		</clipPath>
		<path class="st0" d="M249.2,496.3c-2.8,0-5.3-0.8-7.5-2.3c-60.9-36.9-105-67.4-137.6-106.8c-37.6-45.1-55.9-97.8-57.9-165.5v-1.3
			c0-3.8-0.3-7.3-0.3-10.8c0-3.5,0-7.3,0.3-10.8v-69.7c0-8,6.5-14.8,14.8-14.8c72.5,0,139.6-39.1,175.5-102
			c2.5-4.5,7.5-7.5,12.8-7.5c5.3,0,10.3,2.8,12.8,7.5c35.8,62.9,103.3,102,175.7,102c8,0,14.8,6.5,14.8,14.8v92.5c0,1,0,2-0.3,2.8
			c-5,143.4-84.2,202.3-195.3,269.7C254.5,495.5,252,496.3,249.2,496.3L249.2,496.3z M75.7,221.2c1.8,60.7,18.1,107.3,51.1,147.2
			c28.6,34.6,68.4,62.7,122.6,95.8c102.8-62.7,170-115.6,173.7-243.2c0-0.8,0-1.3,0.3-2v-75.7c-69.4-4.5-133.4-40.1-173.7-96.5
			c-40.9,56.4-104.8,92-174,96.5v56.2c0,3.5-0.3,7-0.3,10.3c0,3.5,0,6.8,0.3,10.3V221.2z M75.7,221.2"/>
	</g>
	<path class="st1" d="M254.7,378.9c-1.8,0-3.5-0.3-5.3-1c-7.5-3-11.3-11.5-8.5-19.1l33.3-86h-60.7c-4.8,0-9.3-2.3-12-6.3
		c-2.8-4-3.5-9-1.8-13.5l35.6-100.3c2.8-7.8,11-11.8,18.8-9c7.8,2.8,11.8,11,9,18.8l-28.8,81h61.4c4.8,0,9.5,2.5,12,6.5
		c2.8,4,3.3,9,1.5,13.5l-41.1,106C266.2,375.4,260.7,378.9,254.7,378.9L254.7,378.9z M254.7,378.9"/>
</g>
</svg>
